<svg width="162" height="29" viewBox="0 0 162 29" fill="none" xmlns="http://www.w3.org/2000/svg">
<g clip-path="url(#clip0_611_778)">
<path d="M13.1586 15.9927C13.157 16.0964 13.1306 16.1989 13.0812 16.2942C13.0318 16.3896 12.9601 16.476 12.8705 16.5485C12.7808 16.621 12.6748 16.6781 12.5587 16.7167C12.4425 16.7552 12.3184 16.7743 12.1934 16.773L8.61372 16.74C8.48879 16.739 8.36541 16.7176 8.25067 16.6769C8.13593 16.6362 8.03207 16.5772 7.94506 16.503C7.85805 16.4289 7.7896 16.3412 7.74363 16.245C7.69766 16.1487 7.67507 16.0458 7.67717 15.9421L7.73103 12.9717C7.73291 12.8681 7.75936 12.7657 7.80888 12.6704C7.85841 12.5751 7.93002 12.4888 8.01965 12.4163C8.10927 12.3439 8.21515 12.2867 8.33123 12.2481C8.44731 12.2095 8.57133 12.1903 8.6962 12.1914C8.82107 12.1926 8.94435 12.2141 9.05899 12.2548C9.17364 12.2955 9.27741 12.3546 9.36437 12.4287C9.45134 12.5028 9.5198 12.5904 9.56585 12.6866C9.6119 12.7828 9.63464 12.8856 9.63276 12.9892L9.61452 14.0567L17.052 8.04415C17.2327 7.89808 17.4756 7.81732 17.7274 7.81965C17.9791 7.82197 18.2191 7.90718 18.3944 8.05654C18.5697 8.2059 18.6661 8.40717 18.6623 8.61607C18.6585 8.82497 18.5549 9.0244 18.3742 9.17047L10.9367 15.1831L12.2249 15.1945C12.3496 15.1958 12.4727 15.2174 12.5872 15.2582C12.7016 15.2991 12.8052 15.3582 12.8919 15.4324C12.9786 15.5065 13.0468 15.5941 13.0926 15.6903C13.1383 15.7865 13.1608 15.8892 13.1586 15.9927ZM23.8978 16.0918L23.9517 13.1213C23.9537 13.0177 23.9312 12.9148 23.8852 12.8185C23.8392 12.7223 23.7708 12.6346 23.6838 12.5604C23.5967 12.4863 23.4929 12.4272 23.3781 12.3866C23.2634 12.3459 23.14 12.3245 23.0151 12.3235L19.4354 12.2905C19.1832 12.2882 18.9398 12.3691 18.7588 12.5154C18.5778 12.6617 18.474 12.8615 18.4702 13.0708C18.4664 13.28 18.5629 13.4816 18.7386 13.6313C18.9142 13.7809 19.1546 13.8662 19.4068 13.8686L20.6943 13.8805L13.2568 19.893C13.0762 20.0391 12.9725 20.2385 12.9687 20.4474C12.9649 20.6563 13.0613 20.8576 13.2366 21.007C13.412 21.1563 13.6519 21.2415 13.9037 21.2439C14.1554 21.2462 14.3983 21.1654 14.579 21.0194L22.0165 15.0068L21.9966 16.0757C21.9928 16.2849 22.0893 16.4866 22.265 16.6362C22.4406 16.7858 22.681 16.8712 22.9332 16.8735C23.1853 16.8758 23.4287 16.7949 23.6097 16.6486C23.7907 16.5023 23.8945 16.3025 23.8983 16.0932L23.8978 16.0918Z" fill="#2F34AB"/>
</g>
<path d="M36.0408 18.36C36.0408 18.84 35.9208 19.28 35.6808 19.68C35.4408 20.08 35.1208 20.4 34.7208 20.64C34.3208 20.88 33.8808 21 33.4008 21H29.8008C29.3208 21 28.8742 20.88 28.4608 20.64C28.0608 20.4 27.7408 20.08 27.5008 19.68C27.2608 19.28 27.1408 18.84 27.1408 18.36V10.14C27.1408 9.64667 27.2608 9.2 27.5008 8.8C27.7408 8.4 28.0608 8.08 28.4608 7.84C28.8742 7.6 29.3208 7.48 29.8008 7.48H33.4008C33.8808 7.48 34.3208 7.6 34.7208 7.84C35.1208 8.08 35.4408 8.4 35.6808 8.8C35.9208 9.2 36.0408 9.64667 36.0408 10.14V10.68C36.0408 10.9333 35.9542 11.1467 35.7808 11.32C35.6075 11.4933 35.3875 11.58 35.1208 11.58H34.5808C34.3275 11.58 34.1075 11.4933 33.9208 11.32C33.7475 11.1467 33.6608 10.9333 33.6608 10.68V10.14C33.6608 9.95333 33.5742 9.86 33.4008 9.86H29.8008C29.6275 9.86 29.5408 9.95333 29.5408 10.14V18.36C29.5408 18.4267 29.5675 18.4933 29.6208 18.56C29.6742 18.6133 29.7342 18.64 29.8008 18.64H33.4008C33.4675 18.64 33.5275 18.6133 33.5808 18.56C33.6342 18.4933 33.6608 18.4267 33.6608 18.36V17.76C33.6608 17.5067 33.7475 17.2933 33.9208 17.12C34.1075 16.9333 34.3275 16.84 34.5808 16.84H35.1208C35.3875 16.84 35.6075 16.9333 35.7808 17.12C35.9542 17.2933 36.0408 17.5067 36.0408 17.76V18.36ZM50.8282 18.36C50.8282 18.84 50.7082 19.28 50.4682 19.68C50.2282 20.08 49.9082 20.4 49.5082 20.64C49.1082 20.88 48.6682 21 48.1882 21H44.3482C43.8682 21 43.4215 20.88 43.0082 20.64C42.6082 20.4 42.2882 20.08 42.0482 19.68C41.8082 19.28 41.6882 18.84 41.6882 18.36V10.14C41.6882 9.64667 41.8082 9.2 42.0482 8.8C42.2882 8.4 42.6082 8.08 43.0082 7.84C43.4215 7.6 43.8682 7.48 44.3482 7.48H48.1882C48.6682 7.48 49.1082 7.6 49.5082 7.84C49.9082 8.08 50.2282 8.4 50.4682 8.8C50.7082 9.2 50.8282 9.64667 50.8282 10.14V18.36ZM48.4482 18.36V10.14C48.4482 9.95333 48.3615 9.86 48.1882 9.86H44.3482C44.2815 9.86 44.2148 9.88667 44.1482 9.94C44.0948 9.99333 44.0682 10.06 44.0682 10.14V18.36C44.0682 18.4267 44.0948 18.4933 44.1482 18.56C44.2148 18.6133 44.2815 18.64 44.3482 18.64H48.1882C48.2548 18.64 48.3148 18.6133 48.3682 18.56C48.4215 18.4933 48.4482 18.4267 48.4482 18.36ZM65.6094 20.08C65.6094 20.3333 65.5161 20.5533 65.3294 20.74C65.1561 20.9133 64.9427 21 64.6894 21H64.1094C63.7494 21 63.4827 20.8467 63.3094 20.54L59.0494 13.16C59.0227 13.1067 58.9827 13.0933 58.9294 13.12C58.8761 13.1333 58.8494 13.16 58.8494 13.2V20.08C58.8494 20.3333 58.7561 20.5533 58.5694 20.74C58.3961 20.9133 58.1894 21 57.9494 21H57.3894C57.1361 21 56.9161 20.9133 56.7294 20.74C56.5561 20.5533 56.4694 20.3333 56.4694 20.08V8.4C56.4694 8.13333 56.5561 7.91333 56.7294 7.74C56.9161 7.56667 57.1361 7.48 57.3894 7.48H57.9694C58.3294 7.48 58.5961 7.63333 58.7694 7.94L63.0294 15.32C63.0694 15.3733 63.1094 15.3933 63.1494 15.38C63.2027 15.3667 63.2294 15.3333 63.2294 15.28V8.4C63.2294 8.13333 63.3161 7.91333 63.4894 7.74C63.6761 7.56667 63.8961 7.48 64.1494 7.48H64.6894C64.9427 7.48 65.1561 7.56667 65.3294 7.74C65.5161 7.91333 65.6094 8.13333 65.6094 8.4V20.08ZM81.5707 8.68L77.6907 20.38C77.6373 20.5533 77.524 20.7 77.3507 20.82C77.1907 20.94 77.0173 21 76.8307 21H76.0107C75.824 21 75.6507 20.94 75.4907 20.82C75.344 20.7 75.2373 20.5533 75.1707 20.38L71.2907 8.68C71.184 8.38667 71.224 8.11333 71.4107 7.86C71.584 7.60667 71.8307 7.48 72.1507 7.48H72.7307C73.1707 7.48 73.464 7.68667 73.6107 8.1L76.3107 16.34C76.3907 16.4333 76.464 16.4333 76.5307 16.34C76.8107 15.4733 77.0973 14.5867 77.3907 13.68C77.6973 12.76 77.984 11.9 78.2507 11.1C78.5173 10.2867 78.7373 9.61333 78.9107 9.08L79.2307 8.1C79.2973 7.91333 79.4107 7.76667 79.5707 7.66C79.744 7.54 79.924 7.48 80.1107 7.48H80.6907C81.0107 7.48 81.2573 7.60667 81.4307 7.86C81.6173 8.1 81.664 8.37333 81.5707 8.68ZM95.8833 20.08C95.8833 20.3333 95.79 20.5533 95.6033 20.74C95.43 20.9133 95.2233 21 94.9833 21H88.1033C87.8633 21 87.65 20.9133 87.4633 20.74C87.29 20.5533 87.2033 20.3333 87.2033 20.08V8.4C87.2033 8.13333 87.29 7.91333 87.4633 7.74C87.65 7.56667 87.8633 7.48 88.1033 7.48H94.9833C95.2233 7.48 95.43 7.56667 95.6033 7.74C95.79 7.91333 95.8833 8.13333 95.8833 8.4V8.94C95.8833 9.19333 95.79 9.41333 95.6033 9.6C95.43 9.77333 95.2233 9.86 94.9833 9.86H89.8233C89.6633 9.86 89.5833 9.94667 89.5833 10.12V12.78C89.5833 12.9667 89.6633 13.06 89.8233 13.06H94.2633C94.53 13.06 94.75 13.1467 94.9233 13.32C95.0967 13.4933 95.1833 13.7067 95.1833 13.96V14.52C95.1833 14.7733 95.0967 14.9933 94.9233 15.18C94.75 15.3533 94.53 15.44 94.2633 15.44H89.8233C89.6633 15.44 89.5833 15.52 89.5833 15.68V18.38C89.5833 18.5533 89.6633 18.64 89.8233 18.64H94.9833C95.2233 18.64 95.43 18.7267 95.6033 18.9C95.79 19.0733 95.8833 19.2933 95.8833 19.56V20.08ZM110.537 19.74C110.67 20.0467 110.65 20.3267 110.477 20.58C110.277 20.86 110.023 21 109.717 21H109.117C108.943 21 108.77 20.9467 108.597 20.84C108.437 20.7333 108.323 20.6 108.257 20.44L106.377 15.94C106.31 15.78 106.19 15.7 106.017 15.7H104.157C103.983 15.7 103.897 15.7867 103.897 15.96V20.08C103.897 20.3333 103.803 20.5533 103.617 20.74C103.443 20.9133 103.23 21 102.977 21H102.417C102.163 21 101.95 20.9133 101.777 20.74C101.617 20.5533 101.537 20.3333 101.537 20.08V8.4C101.537 8.13333 101.617 7.91333 101.777 7.74C101.95 7.56667 102.163 7.48 102.417 7.48H107.837C108.317 7.48 108.757 7.6 109.157 7.84C109.557 8.08 109.877 8.4 110.117 8.8C110.357 9.2 110.477 9.64667 110.477 10.14V13.06C110.477 13.58 110.337 14.0533 110.057 14.48C109.79 14.8933 109.437 15.2133 108.997 15.44C108.943 15.4533 108.903 15.5 108.877 15.58C108.85 15.6467 108.857 15.7133 108.897 15.78L110.537 19.74ZM108.097 13.06V10.14C108.097 9.95333 108.01 9.86 107.837 9.86H104.157C103.983 9.86 103.897 9.94667 103.897 10.12V13.06C103.897 13.2333 103.983 13.32 104.157 13.32H107.837C108.01 13.32 108.097 13.2333 108.097 13.06ZM125.178 8.94C125.178 9.19333 125.091 9.41333 124.918 9.6C124.745 9.77333 124.525 9.86 124.258 9.86H122.158C121.985 9.86 121.898 9.94667 121.898 10.12V20.08C121.898 20.3333 121.805 20.5533 121.618 20.74C121.445 20.9133 121.231 21 120.978 21H120.458C120.205 21 119.985 20.9133 119.798 20.74C119.625 20.5533 119.538 20.3333 119.538 20.08V10.12C119.538 9.94667 119.451 9.86 119.278 9.86H117.158C116.905 9.86 116.685 9.77333 116.498 9.6C116.325 9.41333 116.238 9.19333 116.238 8.94V8.4C116.238 8.13333 116.325 7.91333 116.498 7.74C116.685 7.56667 116.905 7.48 117.158 7.48H124.258C124.525 7.48 124.745 7.56667 124.918 7.74C125.091 7.91333 125.178 8.13333 125.178 8.4V8.94ZM139.465 20.08C139.465 20.3333 139.372 20.5533 139.185 20.74C139.012 20.9133 138.805 21 138.565 21H131.685C131.445 21 131.232 20.9133 131.045 20.74C130.872 20.5533 130.785 20.3333 130.785 20.08V8.4C130.785 8.13333 130.872 7.91333 131.045 7.74C131.232 7.56667 131.445 7.48 131.685 7.48H138.565C138.805 7.48 139.012 7.56667 139.185 7.74C139.372 7.91333 139.465 8.13333 139.465 8.4V8.94C139.465 9.19333 139.372 9.41333 139.185 9.6C139.012 9.77333 138.805 9.86 138.565 9.86H133.405C133.245 9.86 133.165 9.94667 133.165 10.12V12.78C133.165 12.9667 133.245 13.06 133.405 13.06H137.845C138.112 13.06 138.332 13.1467 138.505 13.32C138.679 13.4933 138.765 13.7067 138.765 13.96V14.52C138.765 14.7733 138.679 14.9933 138.505 15.18C138.332 15.3533 138.112 15.44 137.845 15.44H133.405C133.245 15.44 133.165 15.52 133.165 15.68V18.38C133.165 18.5533 133.245 18.64 133.405 18.64H138.565C138.805 18.64 139.012 18.7267 139.185 18.9C139.372 19.0733 139.465 19.2933 139.465 19.56V20.08ZM154.119 19.74C154.252 20.0467 154.232 20.3267 154.059 20.58C153.859 20.86 153.605 21 153.299 21H152.699C152.525 21 152.352 20.9467 152.179 20.84C152.019 20.7333 151.905 20.6 151.839 20.44L149.959 15.94C149.892 15.78 149.772 15.7 149.599 15.7H147.739C147.565 15.7 147.479 15.7867 147.479 15.96V20.08C147.479 20.3333 147.385 20.5533 147.199 20.74C147.025 20.9133 146.812 21 146.559 21H145.999C145.745 21 145.532 20.9133 145.359 20.74C145.199 20.5533 145.119 20.3333 145.119 20.08V8.4C145.119 8.13333 145.199 7.91333 145.359 7.74C145.532 7.56667 145.745 7.48 145.999 7.48H151.419C151.899 7.48 152.339 7.6 152.739 7.84C153.139 8.08 153.459 8.4 153.699 8.8C153.939 9.2 154.059 9.64667 154.059 10.14V13.06C154.059 13.58 153.919 14.0533 153.639 14.48C153.372 14.8933 153.019 15.2133 152.579 15.44C152.525 15.4533 152.485 15.5 152.459 15.58C152.432 15.6467 152.439 15.7133 152.479 15.78L154.119 19.74ZM151.679 13.06V10.14C151.679 9.95333 151.592 9.86 151.419 9.86H147.739C147.565 9.86 147.479 9.94667 147.479 10.12V13.06C147.479 13.2333 147.565 13.32 147.739 13.32H151.419C151.592 13.32 151.679 13.2333 151.679 13.06Z" fill="#2F34AB"/>
<defs>
<clipPath id="clip0_611_778">
<rect width="19.9453" height="17.0712" fill="white" transform="matrix(1 0 -0.0306975 0.999529 6.10437 6)"/>
</clipPath>
</defs>
</svg>
